<svg width="36" height="36" viewBox="0 0 36 36" fill="none" xmlns="http://www.w3.org/2000/svg">
<g id="uil:search">
<path id="Vector" d="M26.6156 24.3483L26.3173 24.7069L26.6544 25.0294L32.2152 30.3482C32.3913 30.5256 32.4865 30.758 32.4865 30.9962C32.4865 31.2348 32.3909 31.4676 32.2141 31.6451C32.1224 31.7337 32.0126 31.805 31.8905 31.8541C31.7672 31.9036 31.6345 31.9293 31.5 31.9293C31.3655 31.9293 31.2327 31.9036 31.1095 31.8541C30.9863 31.8046 30.8757 31.7325 30.7835 31.6429L30.782 31.6415L25.262 26.3186L24.951 26.0187L24.6091 26.283C22.0155 28.2888 18.7204 29.2622 15.4015 28.9989C12.0826 28.7357 8.99829 27.2565 6.7812 24.8708C4.56463 22.4857 3.38283 19.376 3.47348 16.1814C3.56414 12.9869 4.92061 9.9435 7.26976 7.67825C9.61944 5.41248 12.7836 4.09802 16.1126 4.01018C19.4415 3.92234 22.676 5.06801 25.1513 7.20703C27.6261 9.34558 29.1533 12.3135 29.425 15.4987C29.6967 18.6837 28.693 21.8506 26.6156 24.3483ZM10.3957 25.3925C12.2041 26.5577 14.3283 27.1786 16.5 27.1786C19.4116 27.1786 22.2075 26.0634 24.2717 24.0729C26.3365 22.0819 27.5 19.3775 27.5 16.5536C27.5 14.448 26.8524 12.3913 25.6414 10.6436C24.4305 8.89621 22.7115 7.53694 20.7036 6.73495C18.6959 5.93303 16.4876 5.72346 14.3573 6.13207C12.227 6.54068 10.2678 7.5497 8.72829 9.03419C7.18862 10.5189 6.13792 12.4127 5.71204 14.4773C5.28614 16.542 5.50491 18.6819 6.33983 20.6256C7.17466 22.5691 8.5871 24.2272 10.3957 25.3925Z" fill="#707070" stroke="#707070"/>
</g>
</svg>
